<svg width="169" height="308" viewBox="0 0 169 308" fill="none" xmlns="http://www.w3.org/2000/svg">
<path fill-rule="evenodd" clip-rule="evenodd" d="M-17.2579 17.0193C-53.5246 -24.5453 -119.362 19.5596 -94.7216 68.913C-82.6338 93.1244 -93.4371 122.516 -118.327 133.136C-169.065 154.783 -147.463 231.027 -92.9112 222.844C-66.1495 218.83 -41.5346 238.187 -39.1262 265.141C-34.2169 320.084 44.9707 323.101 54.0455 268.69C58.4974 241.997 84.5136 224.569 110.892 230.607C164.664 242.917 192.003 168.537 143.059 143.093C119.049 130.61 110.513 100.482 124.408 77.26C152.731 29.9242 90.4398 -19.0614 51.1162 19.6238C31.8252 38.6017 0.533502 37.4097 -17.2579 17.0193ZM33.7974 176.997C51.6712 165.024 56.4541 140.827 44.4802 122.953C32.5064 105.08 8.30999 100.297 -9.56386 112.271C-27.4377 124.244 -32.2206 148.441 -20.2467 166.315C-8.27286 184.188 15.9235 188.971 33.7974 176.997Z" fill="#DCE8FD"/>
</svg>
