<svg width="450" height="137" viewBox="0 0 450 137" fill="none" xmlns="http://www.w3.org/2000/svg">
<path d="M0.000191291 191.142C8.47775 158.687 23.2648 128.219 43.5171 101.479C63.7694 74.7382 89.0903 52.2486 118.034 35.2939C146.978 18.3392 178.978 7.25136 212.207 2.66356C245.435 -1.92425 279.243 0.0777888 311.698 8.55535C344.153 17.0329 374.62 31.82 401.361 52.0723C428.101 72.3246 450.591 97.6454 467.546 126.589C484.5 155.533 495.588 187.533 500.176 220.762C504.764 253.991 502.762 287.798 494.284 320.253L413.102 299.047C418.795 277.253 420.139 254.551 417.058 232.238C413.978 209.924 406.532 188.435 395.147 168.999C383.761 149.563 368.659 132.56 350.703 118.96C332.746 105.36 312.286 95.4304 290.492 89.7375C268.698 84.0447 245.996 82.7003 223.682 85.7811C201.369 88.8619 179.88 96.3075 160.444 107.693C141.008 119.078 124.004 134.18 110.405 152.137C96.805 170.094 86.8752 190.553 81.1824 212.347L0.000191291 191.142Z" fill="#DCE8FD"/>
</svg>
